#!OML:ASF H:\Punching\Project 1\Capture day 1\Session 1\female.ASF
:FULLY-SPECIFIED
:DEGREES
3034
root -0.0235737 15.3729 9.58909 12.4888 17.9342 0.129703
lowerback -1.72012 0.807543 -1.61083
upperback -6.82491 1.0488 -0.826207
thorax -6.12592 0.601202 0.00181122
lowerneck -11.2253 1.35073 6.08589
upperneck 30.8715 2.92521 -7.07477
head 12.1878 1.21659 -3.33623
rclavicle -1.78409e-014 -8.34896e-015
rhumerus -9.18051 4.41372 -66.8915
rradius 105.976
rwrist 6.24864
rhand -44.2588 10.6541
rfingers 7.12502
rthumb -17.0703 -18.6159
lclavicle -1.78409e-014 -8.34896e-015
lhumerus -50.901 -37.4066 101.86
lradius 116.557
lwrist -1.82938
lhand -23.7513 3.97321
lfingers 7.12502
lthumb 2.71759 33.9356
rfemur -31.18 -5.76238 6.92516
rtibia 33.1744
rfoot -6.94657 -13.3376
rtoes -9.28927
lfemur 3.49917 -21.937 -7.91021
ltibia 1.90833e-014
lfoot -14.4364 19.293
ltoes -16.0295
3035
root -0.132519 15.3509 9.67265 12.4863 19.0355 -0.110702
lowerback -1.66883 0.992266 -1.24944
upperback -6.84125 1.30046 -0.91997
thorax -6.16462 0.70478 -0.308202
lowerneck -11.3269 1.05433 5.78492
upperneck 31.2749 2.51436 -6.80263
head 12.3301 1.037 -3.24576
rclavicle 1.63749e-014 7.15625e-015
rhumerus -7.92857 4.03731 -67.6305
rradius 105.739
rwrist 6.77717
rhand -44.1512 10.4372
rfingers 7.12502
rthumb -16.9667 -18.8418
lclavicle 1.63749e-014 7.15625e-015
lhumerus -50.6838 -37.4813 101.926
lradius 116.403
lwrist -1.9774
lhand -23.5986 3.9128
lfingers 7.12502
lthumb 2.86503 33.8733
rfemur -31.0169 -6.38007 7.7996
rtibia 33.8897
rfoot -8.23194 -13.6923
rtoes -8.59072
lfemur 3.22257 -22.6409 -6.8781
ltibia 0
lfoot -14.4472 19.677
ltoes -16.6155
3036
root -0.239123 15.3293 9.75236 12.4947 20.1061 -0.380826
lowerback -1.61539 1.18687 -0.827141
upperback -6.85965 1.56696 -1.016
thorax -6.20137 0.812051 -0.655562
lowerneck -11.4289 0.769124 5.49806
upperneck 31.6744 2.11188 -6.52063
head 12.476 0.865044 -3.1527
rclavicle -2.49599e-014 -1.98785e-015
rhumerus -6.63528 3.70418 -68.4298
rradius 105.496
rwrist 7.19093
rhand -44.1061 10.276
rfingers 7.12502
rthumb -16.9233 -19.0066
lclavicle -2.49599e-014 -1.98785e-015
lhumerus -50.4899 -37.498 102.006
lradius 116.267
lwrist -2.15818
lhand -23.4483 3.83259
lfingers 7.12502
lthumb 3.01018 33.7911
rfemur -30.9838 -7.02635 8.70174
rtibia 34.6807
rfoot -9.37256 -14.007
rtoes -7.99162
lfemur 2.89172 -23.2959 -5.81687
ltibia -1.27222e-014
lfoot -14.4281 20.0922
ltoes -17.0744
3037
root -0.343002 15.3088 9.82847 12.5106 21.134 -0.673347
lowerback -1.55357 1.39841 -0.345052
upperback -6.88689 1.85739 -1.124
thorax -6.24556 0.927258 -1.05044
lowerneck -11.5219 0.492279 5.24201
upperneck 32.0724 1.71206 -6.23527
head 12.6242 0.69968 -3.06329
rclavicle -3.66882e-014 3.57812e-015
rhumerus -5.32578 3.41439 -69.2901
rradius 105.229
rwrist 7.51281
rhand -44.1353 10.2758
rfingers 7.12502
rthumb -16.9514 -19.0045
lclavicle -3.66882e-014 3.57812e-015
lhumerus -50.3331 -37.479 102.104
lradius 116.145
lwrist -2.36564
lhand -23.3072 3.73607
lfingers 7.12502
lthumb 3.14646 33.6926
rfemur -31.0815 -7.7149 9.62172
rtibia 35.5598
rfoot -10.3865 -14.233
rtoes -7.54774
lfemur 2.51877 -23.8923 -4.74458
ltibia -2.54444e-014
lfoot -14.3745 20.5369
ltoes -17.4033
3038
root -0.443946 15.2899 9.90027 12.5465 22.1265 -0.962773
lowerback -1.50103 1.62087 0.174852
upperback -6.90257 2.16334 -1.24756
thorax -6.26459 1.04739 -1.48294
lowerneck -11.6279 0.222086 4.99137
upperneck 32.4484 1.30873 -5.92464
head 12.77 0.537292 -2.96481
rclavicle -1.39149e-015 1.03368e-014
rhumerus -3.94267 3.15779 -70.1914
rradius 104.936
rwrist 7.71472
rhand -44.2143 10.5304
rfingers 7.12502
rthumb -17.0275 -18.7433
lclavicle -1.39149e-015 1.03368e-014
lhumerus -50.1792 -37.4425 102.213
lradius 116.041
lwrist -2.60585
lhand -23.1807 3.6531
lfingers 7.12502
lthumb 3.26861 33.6078
rfemur -31.3109 -8.46788 10.5303
rtibia 36.5287
rfoot -11.299 -14.3428
rtoes -7.22367
lfemur 2.09392 -24.4396 -3.68441
ltibia 9.54166e-015
lfoot -14.2814 20.9958
ltoes -17.6
3039
root -0.541992 15.2723 9.96845 12.5941 23.076 -1.23368
lowerback -1.44438 1.85857 0.713542
upperback -6.91347 2.48979 -1.39272
thorax -6.27253 1.17596 -1.94938
lowerneck -11.7354 -0.0450194 4.76489
upperneck 32.8127 0.89806 -5.60397
head 12.9151 0.377014 -2.86729
rclavicle 1.76173e-014 -1.27222e-014
rhumerus -2.52134 2.94044 -71.1236
rradius 104.614
rwrist 7.84221
rhand -44.3549 11.0324
rfingers 7.12502
rthumb -17.1628 -18.2296
lclavicle 1.76173e-014 -1.27222e-014
lhumerus -50.0418 -37.4012 102.336
lradius 115.958
lwrist -2.81833
lhand -23.0532 3.57425
lfingers 7.12502
lthumb 3.39171 33.527
rfemur -31.6432 -9.2653 11.4046
rtibia 37.5758
rfoot -12.1341 -14.3351
rtoes -7.02127
lfemur 1.64317 -24.9377 -2.66174
ltibia 1.59028e-014
lfoot -14.1564 21.4613
ltoes -17.6824
3040
root -0.63723 15.2554 10.0336 12.6518 23.9825 -1.46355
lowerback -1.38473 2.10351 1.23668
upperback -6.91194 2.8254 -1.55379
thorax -6.26161 1.3097 -2.42387
lowerneck -11.8395 -0.306182 4.55435
upperneck 33.1589 0.487189 -5.27671
head 13.0561 0.220573 -2.76935
rclavicle -6.53505e-014 -1.27222e-014
rhumerus -1.05686 2.79721 -72.0714
rradius 104.284
rwrist 7.88796
rhand -44.4834 11.6223
rfingers 7.12502
rthumb -17.2865 -17.6289
lclavicle -6.53505e-014 -1.27222e-014
lhumerus -49.9123 -37.346 102.473
lradius 115.897
lwrist -2.98139
lhand -22.932 3.51492
lfingers 7.12502
lthumb 3.5088 33.4658
rfemur -32.0451 -10.0935 12.2199
rtibia 38.6776
rfoot -12.9167 -14.2277
rtoes -6.90933
lfemur 1.18469 -25.3951 -1.70343
ltibia 4.77083e-014
lfoot -14.0138 21.9139
ltoes -17.6779
3041
root -0.730037 15.2384 10.0962 12.7159 24.8462 -1.64129
lowerback -1.32391 2.34735 1.71556
upperback -6.89083 3.15859 -1.72027
thorax -6.22536 1.44521 -2.87855
lowerneck -11.9379 -0.554503 4.36324
upperneck 33.4829 0.0910503 -4.96003
head 13.1913 0.072686 -2.67615
rclavicle -2.49164e-014 3.18055e-015
rhumerus 0.454546 2.75036 -73.0285
rradius 103.936
rwrist 7.88224
rhand -44.5865 12.3528
rfingers 7.12502
rthumb -17.3857 -16.8897
lclavicle -2.49164e-014 3.18055e-015
lhumerus -49.774 -37.2544 102.614
lradius 115.863
lwrist -3.06324
lhand -22.8127 3.48148
lfingers 7.12502
lthumb 3.62396 33.4304
rfemur -32.4801 -10.936 12.9705
rtibia 39.7998
rfoot -13.6485 -14.0662
rtoes -6.97574
lfemur 0.733772 -25.8182 -0.820193
ltibia 1.27222e-014
lfoot -13.8659 22.3385
ltoes -17.5894
3042
root -0.820657 15.2209 10.1569 12.7827 25.6696 -1.75782
lowerback -1.25347 2.58851 2.13478
upperback -6.8574 3.48691 -1.89232
thorax -6.17791 1.5821 -3.30544
lowerneck -12.012 -0.793307 4.1917
upperneck 33.795 -0.292943 -4.65559
head 13.3206 -0.0676623 -2.58876
rclavicle 4.17821e-014 2.78299e-015
rhumerus 1.99163 2.8208 -73.9906
rradius 103.534
rwrist 7.92041
rhand -44.76 13.0369
rfingers 7.12502
rthumb -17.5527 -16.1907
lclavicle 4.17821e-014 2.78299e-015
lhumerus -49.6532 -37.1326 102.774
lradius 115.855
lwrist -3.04174
lhand -22.6931 3.46702
lfingers 7.12502
lthumb 3.73946 33.414
rfemur -32.9133 -11.7683 13.6461
rtibia 40.9071
rfoot -14.3466 -13.8958
rtoes -7.15217
lfemur 0.303658 -26.2155 -0.0202818
ltibia -2.22639e-014
lfoot -13.7282 22.7157
ltoes -17.437
